<?xml version="1.0" encoding="UTF-8"?>
<svg xmlns="http://www.w3.org/2000/svg" id="Grupo_1" data-name="Grupo 1" width="210.568" height="208.676" viewBox="0 0 210.568 208.676">
  <path id="Trazado_1" data-name="Trazado 1" d="M83.394,26.509V26.5a74.389,74.389,0,0,0-3.84,6.51.463.463,0,0,0,.771.5,71.428,71.428,0,0,1,5.331-5.876c1.514.133,2.932,1.192,4.54,2.421,0,0,15.952-10.593,13.2-28.4a.47.47,0,0,0-.194-.307.463.463,0,0,0-.169-.075.471.471,0,0,0-.185,0,.459.459,0,0,0-.1.029c-14.965,6.245-18.88,13.371-21,19.75C82.958,22.971,83.646,24.71,83.394,26.509Z" fill="#233b29"></path>
  <path id="Trazado_2" data-name="Trazado 2" d="M59.741,20.146c-.424,2.784-.9,5.6-1.157,8.432a.323.323,0,0,0,.228.338.328.328,0,0,0,.411-.211c.895-2.763,2-5.435,3.07-8.172A11.914,11.914,0,0,1,66.4,19.057S74.39,10.647,65.595.165a.478.478,0,0,0-.579-.112c-9.514,5-8.679,13.279-8.372,17.049A8.078,8.078,0,0,1,59.741,20.146Z" fill="#233b29"></path>
  <path id="Trazado_3" data-name="Trazado 3" d="M35.827,74.314a9.92,9.92,0,0,1,6.141,7.658c.044.182.087.367.125.553A11.676,11.676,0,0,0,32.814,81a.452.452,0,0,0,.118.895,10.2,10.2,0,0,1,7.152,2.151A7.322,7.322,0,0,1,42.35,90.1a49.817,49.817,0,0,1-1.339,5.853,4.159,4.159,0,0,0,.66,3.735,8.311,8.311,0,0,0,2.625,2.232v21.69c1.626-1.126,3.217-2.135,4.775-3.121,2.066-1.31,4.071-2.577,6.1-4.073V101.952a8.315,8.315,0,0,0,2.687-2.269,4.151,4.151,0,0,0,.658-3.735,53.015,53.015,0,0,1-1.464-6.612c-1.182-13.679,5.088-26.953,15.194-36.224a22.211,22.211,0,0,1,12.861-.131s15.873-8.666,18.735-23.931a.469.469,0,0,0-.385-.537.477.477,0,0,0-.166,0C85.67,31.827,77.28,39.406,71.444,45.554a12.806,12.806,0,0,1,.262,6.023A51.286,51.286,0,0,0,58.651,67.138a77.561,77.561,0,0,1,9.721-20.963.488.488,0,0,0-.118-.678l-.029-.019a.514.514,0,0,0-.725.124,100.01,100.01,0,0,0-6.407,10.048,65.948,65.948,0,0,0-3.775,7.938,104.142,104.142,0,0,1,4.92-17.5c1.855-.955,5.208-2.286,8.382-1.482,0,0,13.289-14.969,9.7-36.348a.472.472,0,0,0-.743-.292c-13.212,9.777-21.522,23.008-22.357,31.4a11.019,11.019,0,0,1,3.458,6.183,107.1,107.1,0,0,0-6.623,20.869c.6-8.025,1.491-16.038,2.532-24a.612.612,0,0,0-1.207-.193c-1.437,7.584-2.7,15.209-3.719,22.876q-.44-8.743-1.109-17.472c.376-3.368,1.52-6.392,4.654-7.822,2.49-8.063,2.4-22.915-7.275-38.781a.476.476,0,0,0-.66-.137.515.515,0,0,0-.137.137c-16.008,24.7-3.774,45.067-3.774,45.067a5.677,5.677,0,0,1,5.7,2.566q.21,10.454.085,20.911a107.563,107.563,0,0,0-6.085-21.642.467.467,0,0,0-.883.3c1.042,3.412,1.981,6.846,2.752,10.309A89.282,89.282,0,0,1,46.988,74.57a63.427,63.427,0,0,0-7.969-17.149,18.391,18.391,0,0,1,2.264-9.911C36.735,35.53,20.3,26.923,10.087,24.867a.463.463,0,0,0-.544.539c4.272,22.687,22.024,34.7,22.024,34.7a6.775,6.775,0,0,1,6.475-.844c.716,1.329,1.408,2.667,2.05,4.019a48.793,48.793,0,0,1,3.722,10.411A30.111,30.111,0,0,0,32.8,62.267a.437.437,0,0,0-.509.709,35.718,35.718,0,0,1,5.674,5.472,24.722,24.722,0,0,1,4.436,8.1,10.937,10.937,0,0,0-6.151-3.969c-2.712-1.749-6.291-4.326-5.688-9.055-9.881-2.705-24.51,1.258-29.492,4.792a.456.456,0,0,0-.114.634.4.4,0,0,0,.075.085c7.424,6.429,21.144,13.2,30.088,13.854A11.87,11.87,0,0,1,35.827,74.314Z" fill="#233b29"></path>
  <path id="Trazado_4" data-name="Trazado 4" d="M25.045,28.348c2.382-1.6,5.321-1.221,7.4-.773,1.855,3.01,3.732,6.114,5.121,8.653a.133.133,0,0,0,.134.062.132.132,0,0,0,.049-.018.135.135,0,0,0,.06-.145c-.843-2.784-1.8-5.546-2.773-8.291l-.789-2.187a10.882,10.882,0,0,1,3.441-4.692C33.326,1.2,9.74.983,6.045,1.07a.467.467,0,0,0-.455.473v.019C6.412,12.712,13.4,24.472,25.045,28.348Z" fill="#233b29"></path>
  <path id="Trazado_5" data-name="Trazado 5" d="M18.318,61.886V61.9c.671-1.266,2.584-3.608,4.982-3.638,1.35.421,2.677.873,3.985,1.4a.2.2,0,0,0,.15.018.2.2,0,0,0,.043-.362c-1.265-.844-2.563-1.637-3.884-2.392v-.017a4.05,4.05,0,0,1-1.408-3.691C15.115,45.3,6.715,44.576.159,50.044a.459.459,0,0,0-.1.58A24.956,24.956,0,0,0,18.318,61.886Z" fill="#233b29"></path>
  <path id="Trazado_6" data-name="Trazado 6" d="M22.537,92.077a18.453,18.453,0,0,1,1.238-6.067A21.867,21.867,0,0,1,25.839,84.4a.248.248,0,0,0,.091-.313.256.256,0,0,0-.339-.13q-.858.387-1.69.842c-1.668-.454-2.824-1.119-4.613-3.3C8.822,79.92,3.358,86.03,2.195,87.521a.449.449,0,0,0,.039.6C6.415,92.2,15.814,95.49,22.537,92.077Z" fill="#233b29"></path>
  <path id="Trazado_7" data-name="Trazado 7" d="M49.923,156.319a64.393,64.393,0,0,0-5.622,6.647v11.459a68.918,68.918,0,0,0,4.282-8.877l6.594-16.065V132.865a81.414,81.414,0,0,1-8.966,9.855c-.662.638-1.292,1.295-1.909,1.959v9.059a21.48,21.48,0,0,1,2.338-.137c.75,0,1.531.036,2.326.108a1.542,1.542,0,0,1,1.294,1,1.547,1.547,0,0,1-.33,1.6Z" fill="#233b29"></path>
  <path id="Trazado_8" data-name="Trazado 8" d="M37.506,87.992a.351.351,0,0,0-.424-.249,9.931,9.931,0,0,0-3.639,1.886,17.941,17.941,0,0,0-2.22,2.095,5.156,5.156,0,0,1-2.993-1.961c-3.653,1.513-10.467,6.62-10.029,15.265a.47.47,0,0,0,.332.422c3.962,1.1,12.1-.58,15.568-6.13-1.219-1.146-1.952-3.712-2-5.932a17.157,17.157,0,0,1,2.187-2.856,8.86,8.86,0,0,1,3.024-2.141.344.344,0,0,0,.2-.4Z" fill="#233b29"></path>
  <path id="Trazado_9" data-name="Trazado 9" d="M200.361,94.133c-4.663,7.536-5.8,11.111-5.786,18.052,0,8.39,3.348,13.278,3.832,33.3,2.467,1.18,2.778,4.2,3.119,6.158-.548,2.637-1.068,5.314-1.421,8.007-.544.993-1.773,1.3-2.951,1.886.013-.547.011-1.1,0-1.656a28.489,28.489,0,0,0-1.834-8.2,9.848,9.848,0,0,1,1-5.6c-1.514-9.54-5.978-22.283-9.992-30.582-3.443-7.13-12.625-9.41-16.3-11.835-.484,9.9,4.285,15.989,8.455,22.263,5.979,9,8.421,19.3,10.911,25.365a5.074,5.074,0,0,1,4.74,2.414,24.21,24.21,0,0,1,.708,6.183c-.222,2.883-.748,5.9-.964,8.92a43.253,43.253,0,0,0-2.455-4.713q-.261-.437-.533-.872-.481-.772-.991-1.53c-1.115-2.686-2.185-5.308-1.844-8.328-4.662-9.662-9.574-18.45-20.351-26.789-.475-.368-.947-.719-1.418-1.061-3.7-2.671-7.242-4.638-10.891-7.254a52.881,52.881,0,0,1-6.149-5.107c.175,6.537,2.841,12.332,6.149,17.157a74.08,74.08,0,0,0,9.988,11.319c.3.3.594.6.886.893,7.385,7.487,11.73,16.293,16.87,21.042a9.7,9.7,0,0,1,3.921-.9,5.6,5.6,0,0,1,1.608.218c.226.387.438.773.656,1.16.168.305.345.6.506.912.027.048.05.092.075.141,3.7,6.875,4.135,12.194,3.938,18.727a22.818,22.818,0,0,0-1.485-2.977c-.131-.222-.276-.435-.415-.651-.2-.327-.41-.653-.63-.966a50.486,50.486,0,0,0-8.326-12.527c-5.331-5.708-9.451-10.524-16.718-11.4a20.165,20.165,0,0,0-2.38-.153q-1.049,0-2.188.1a63.4,63.4,0,0,1,4.568,5.242c6.885,8.8,9.043,15.97,17.744,19.742a10.187,10.187,0,0,1,2.991-.543,7.045,7.045,0,0,1,2.181.387c.193.3.386.608.564.916q.2.35.385.707a23.313,23.313,0,0,1,2.353,14.647c-.087.867-.193,1.739-.293,2.633a5.951,5.951,0,0,1-2.085,2.11c.052-1.967.064-4.148-.023-6.214-.019-.508-.627-.355-.744.141-.629,2.705-3.644,6.035-5.725,8.077.224-2.359.434-5.372.442-8.127a.406.406,0,0,0-.018-.12h-.626a.523.523,0,0,0-.089.174c-.864,2.769-3.94,6.006-6.116,8.034.347-2.318.694-5.306.827-8a.354.354,0,0,0-.044-.209h-.578a.553.553,0,0,0-.116.178c-1.1,2.825-4.232,5.969-6.49,7.984.463-2.272.945-5.233,1.2-7.864a.333.333,0,0,0-.012-.16.341.341,0,0,0-.082-.138h-.49a.482.482,0,0,0-.15.182c-1.351,2.867-4.519,5.928-6.853,7.922.578-2.234,1.18-5.161,1.56-7.729a.343.343,0,0,0-.029-.227.349.349,0,0,0-.164-.16h-.355a.461.461,0,0,0-.192.194c-1.594,2.9-4.8,5.87-7.2,7.856.684-2.193,1.406-5.072,1.9-7.564a.385.385,0,0,0-.285-.466.387.387,0,0,0-.075-.01h-.027a.388.388,0,0,0-.2.05.4.4,0,0,0-.145.143c-3.253,5.117-10.856,10.263-10.856,10.263h.09c-.4.309-.682.57-.682.726a.879.879,0,0,0,.9.858H162.2c9.312,0,28.336.663,36.645.7h.617l-.015-.016a7.06,7.06,0,0,0,5.7-2.977,3.845,3.845,0,0,0,.511-3.191c-1.6-5.773-1.7-14.747-1.706-15.875v-.12c0-5.252.528-13.967.528-20.069,0-1.435-1.5-1.961-1.907-5.184.175-3.465.655-6.912,1.13-10.413a5.664,5.664,0,0,1,3.471-3.648c.087-9.258-.054-25.4-1.433-35.469A43.758,43.758,0,0,0,200.361,94.133Z" fill="#233b29"></path>
  <path id="Trazado_10" data-name="Trazado 10" d="M150.7,200.036a.4.4,0,0,0,.1-.2.394.394,0,0,0-.022-.22.4.4,0,0,0-.135-.174.393.393,0,0,0-.207-.076,47.562,47.562,0,0,1-11.873-2.384,45.705,45.705,0,0,0-16.427-1.805,5.007,5.007,0,0,1-2.575,4.626,24.265,24.265,0,0,0-8.486,2.547c-.876.458-1.721.966-2.54,1.494a20.278,20.278,0,0,1,4.7-11.163c1.493-1.258,3.13-2.922,6.28-2.319,7.522-3.633,15.622-15.116,8.818-25.313a.451.451,0,0,0-.127-.123.466.466,0,0,0-.164-.065.454.454,0,0,0-.176,0,.442.442,0,0,0-.162.07l-.013.01c-8.653,6.483-14.581,11.4-16.5,21.035a5.578,5.578,0,0,1,.771,5.7,23.093,23.093,0,0,0-5.653,8.765c-.42-4.638-.885-9.262-1.18-13.9.706-1.047,1.736-1.811,4.148-1.739,6.9-13.084,2.035-24.817-5.938-32.217,0,0-17.937,13.934-6.095,31.081,3.748-.312,4.974,1.8,6.081,3.246-.119,2.693-.193,5.41-.214,8.084q-.027,2.319-.073,4.638A23.285,23.285,0,0,0,95.9,192a8.273,8.273,0,0,1-.7-7.577c-6.124-8.247-10.565-10.3-20.714-13.748a.458.458,0,0,0-.176-.026.45.45,0,0,0-.4.306v.025c-2.652,10.332,4.039,20.942,14.685,24.077,2.207-1.739,4.673-2.246,6.606-1.546V193.5c3.076,2.8,5.7,6.276,6.183,10.355-.081.049-.162.1-.239.153a25.434,25.434,0,0,0-10.573-2.663,4.24,4.24,0,0,1-2.664-3.683c-13.246-6.8-25.74-.286-28.236,1.16a.446.446,0,0,0-.16.61.27.27,0,0,0,.044.064c6.114,7.038,18.093,8.947,28.068,7.457.482-2.365,1.338-3.447,2.444-3.948a25.964,25.964,0,0,1,2.637.512,24.633,24.633,0,0,1,8.826,4.369,7.152,7.152,0,0,0,3.4.792,6.928,6.928,0,0,0,3.61-.916,24.711,24.711,0,0,1,8.243-5.394,26.891,26.891,0,0,1,3.013-.943c1.044.738,1.838,2.318,2.139,4.67C131.674,208.3,144.384,207.081,150.7,200.036Z" fill="#233b29"></path>
  <path id="Trazado_11" data-name="Trazado 11" d="M62.178,205.287H62.2l-.2-.14a21.9,21.9,0,0,1-2.542-2.015l-.127.023c-2.507-1.973-6.027-5.055-7.983-8.129a.391.391,0,0,0-.144-.143.384.384,0,0,0-.2-.05h-.029a.382.382,0,0,0-.268.122.388.388,0,0,0-.1.276.331.331,0,0,0,.01.077c.5,2.495,1.223,5.38,1.909,7.575-2.4-1.987-5.614-4.97-7.209-7.867a.457.457,0,0,0-.193-.193h-.355a.351.351,0,0,0-.193.387c.386,2.568.987,5.5,1.564,7.729-2.336-2-5.514-5.065-6.864-7.936a.508.508,0,0,0-.148-.182h-.494a.371.371,0,0,0-.081.138.363.363,0,0,0-.013.16c.258,2.634.739,5.6,1.206,7.874-2.262-2.013-5.4-5.163-6.5-8a.592.592,0,0,0-.114-.176h-.579a.36.36,0,0,0-.048.209c.133,2.705.484,5.691.829,8.009-2.174-2.03-5.258-5.271-6.124-8.044a.6.6,0,0,0-.089-.174h-.634a.42.42,0,0,0-.019.12c0,2.757.22,5.776.444,8.139-2.081-2.044-5.1-5.38-5.736-8.087-.114-.5-.723-.653-.743-.141-.091,2.182-.073,4.495-.014,6.545a7.471,7.471,0,0,1-2.091-2.336,52.274,52.274,0,0,1-.523-7.87,19.873,19.873,0,0,1,2.569-9.513q.193-.354.4-.7c.193-.314.386-.621.579-.926a7.091,7.091,0,0,1,2.154-.387,10.479,10.479,0,0,1,2.991.543c8.72-3.781,10.864-10.969,17.784-19.8a64.211,64.211,0,0,1,4.527-5.184c-.76-.068-1.485-.1-2.189-.1a20.522,20.522,0,0,0-2.338.146c-7.281.855-11.416,5.678-16.76,11.4a50.573,50.573,0,0,0-8.349,12.581c-.206.3-.415.605-.606.912-.139.22-.264.446-.386.671a23.838,23.838,0,0,0-1.489,3.033c-.031-.867-.058-1.739-.062-2.589a31.911,31.911,0,0,1,4-16.212c.181-.35.365-.7.554-1.041.216-.387.432-.773.656-1.16a5.562,5.562,0,0,1,1.622-.224,9.668,9.668,0,0,1,3.934.91c5.148-4.759,9.5-13.586,16.911-21.085.282-.284.557-.58.847-.85a74.067,74.067,0,0,0,10.029-11.381c3.279-4.814,5.929-10.587,6.108-17.1a53.165,53.165,0,0,1-6.108,5.078c-3.649,2.622-7.188,4.6-10.878,7.281-.484.352-.964.711-1.46,1.09-10.776,8.339-15.688,17.129-20.35,26.789.343,3.039-.746,5.679-1.867,8.382-.33.491-.648.986-.964,1.484-.174.273-.351.535-.517.812a.413.413,0,0,1-.025.04,38.9,38.9,0,0,0-2.457,4.611c-.216-2.982-.735-5.961-.964-8.806a24.371,24.371,0,0,1,.708-6.183,5.081,5.081,0,0,1,4.747-2.412c2.488-6.063,4.932-16.37,10.907-25.363,4.168-6.276,8.939-12.366,8.455-22.267-3.678,2.427-12.86,4.707-16.3,11.837-4.006,8.309-8.486,21.042-9.993,30.582a9.783,9.783,0,0,1,1,5.584q-.289.838-.579,1.689a26.032,26.032,0,0,0-1.263,6.524c-.023.556-.023,1.109-.012,1.654-1.178-.58-2.405-.891-2.953-1.884-.349-2.706-.868-5.37-1.421-8.01.343-1.959.654-4.973,3.121-6.148.5-20.028,3.848-24.927,3.857-33.305,0-6.943-1.134-10.51-5.8-18.051a43.8,43.8,0,0,0-5.379,16.47c-1.379,10.068-1.52,26.21-1.433,35.469a5.664,5.664,0,0,1,3.472,3.647c.476,3.5.964,6.956,1.132,10.415-.405,3.225-1.909,3.748-1.909,5.184,0,6.1.528,14.815.528,20.069v.119c0,1.129-.112,10.1-1.7,15.876a3.87,3.87,0,0,0,.511,3.192,7.063,7.063,0,0,0,5.7,2.974l-.013.019h.619c7.929-.035,26-.7,34.846-.7H61.977a.862.862,0,0,0,.328-.066.851.851,0,0,0,.278-.186.86.86,0,0,0,.251-.608C62.829,205.855,62.561,205.594,62.178,205.287Z" fill="#233b29"></path>
  <path id="Trazado_12" data-name="Trazado 12" d="M106.393,39.638h-3.117L55.169,156.831l-4.014,9.775a56.92,56.92,0,0,1-6.86,12.912c-4.536,5.99-10.284,8.971-19.42,9.4v3.125h46.1v-3.125c-9.4-.17-14.172-2.523-15.815-6.525a9.825,9.825,0,0,1-.671-3.737,19.691,19.691,0,0,1,.671-4.705,45.592,45.592,0,0,1,2.228-6.446L67.85,141.838h59.018l10.913,26.78a23.638,23.638,0,0,1,2.224,9.367c0,3.933-1.563,7.038-5.084,8.92-.182.1-.367.193-.556.28s-.366.168-.557.247a22.872,22.872,0,0,1-8.276,1.484v3.125h59.039v-3.125c-8.307-.541-13.864-3.422-18.3-8.888-2.824-3.478-5.208-8-7.536-13.638l-3.338-8.085Zm-36.08,95.949L97.487,69.1l26.945,66.49Z" fill="#233b29"></path>
  <path id="Trazado_13" data-name="Trazado 13" d="M161.607,153.714c.771-.07,1.543-.1,2.282-.1a21.53,21.53,0,0,1,2.381.143v-9.026c-.632-.676-1.276-1.353-1.953-2a81.213,81.213,0,0,1-8.922-9.783V151l5.915,14.328a64.435,64.435,0,0,0,4.96,9.878V163.035a63.821,63.821,0,0,0-5.668-6.714,1.544,1.544,0,0,1,1-2.607Z" fill="#233b29"></path>
  <path id="Trazado_14" data-name="Trazado 14" d="M177.4,27.744c2.079-.491,5.449-1.184,8.12.609,11.642-3.876,18.639-15.636,19.457-26.785a.466.466,0,0,0-.434-.493h-.023c-3.7-.087-27.28.135-31.646,19.887a11.043,11.043,0,0,1,3.768,5.646c-1.35,2.11-2.812,4.593-3.581,6.054a32.363,32.363,0,0,1-.311,3.865l.143.029C173.467,35.318,175.466,31.187,177.4,27.744Z" fill="#233b29"></path>
  <path id="Trazado_15" data-name="Trazado 15" d="M120.364,30.033c2-1.528,3.418-2.678,5.381-2.22,1.63,1.863,3.7,4.232,5.906,6.749l.108-.062c-.32-1-.683-2.149-.93-3.179a.708.708,0,0,0-.175-.326c-1.377-1.484-2.65-2.833-3.752-3.99-.385-1.9.631-3.942,1.912-5.99-2.122-6.377-6.033-13.507-21-19.746a.473.473,0,0,0-.364,0,.474.474,0,0,0-.257.257.462.462,0,0,0-.029.1C104.41,19.446,120.364,30.033,120.364,30.033Z" fill="#233b29"></path>
  <path id="Trazado_16" data-name="Trazado 16" d="M149.307,21.2c.409,2.247.857,4.92,1.138,6.57a26.623,26.623,0,0,1,1.883,3.285l.245-.039c-.239-2.224-1.337-7.248-2.041-10.378a8.41,8.41,0,0,1,3.389-3.534c.3-3.77,1.144-12.05-8.367-17.049a.483.483,0,0,0-.578.114c-8.793,10.483-.8,18.89-.8,18.89A11.9,11.9,0,0,1,149.307,21.2Z" fill="#233b29"></path>
  <path id="Trazado_17" data-name="Trazado 17" d="M209.49,68.307c-4.978-3.534-19.609-7.5-29.488-4.794.567,4.444-2.557,6.985-5.186,8.728a10.088,10.088,0,0,0-1.713.466,10.914,10.914,0,0,0-4.862,3.658,27.708,27.708,0,0,1,10.029-13.4l.411-.309a.58.58,0,0,0-.079-.437.577.577,0,0,0-.365-.253l-.1-.012-.328.222a40.957,40.957,0,0,0-6.44,5.192,27.21,27.21,0,0,0-4.642,6.3,70.413,70.413,0,0,1,5.861-14.444A6.775,6.775,0,0,1,179,60.1s17.744-12.013,22.02-34.712a.465.465,0,0,0-.374-.539.458.458,0,0,0-.17,0c-10.21,2.056-26.648,10.666-31.2,22.64a18.442,18.442,0,0,1,2.274,9.843c-.965,1.536-2.1,3.488-2.938,5a54.734,54.734,0,0,0-5.038,12.156c.066-1.843.193-3.683.371-5.519a104.056,104.056,0,0,1,4.2-19.92.932.932,0,0,0-.311-.806.633.633,0,0,0-.7.017,107.15,107.15,0,0,0-5.593,20.39c-.054.3-.093.591-.143.887-.065-5.776.12-14.4.262-21.153a5.588,5.588,0,0,1,5.528-2.319S179.425,25.7,163.408,1a.474.474,0,0,0-.656-.133.493.493,0,0,0-.139.145c-9.674,15.864-9.761,30.716-7.271,38.789,3.1,1.415,4.243,4.388,4.644,7.714-.4,5.567-.847,12.62-1.095,17.516C157.866,57.4,156.628,50,155.205,42.426a.67.67,0,0,0-1.246-.014c1.043,7.963,1.929,15.974,2.532,24a126.615,126.615,0,0,0-6.557-21.23,11.08,11.08,0,0,1,3.39-5.832c-.829-8.388-9.14-21.616-22.351-31.4a.474.474,0,0,0-.662.1.507.507,0,0,0-.083.193c-3.587,21.377,9.7,36.348,9.7,36.348,3.149-.8,6.49.512,8.349,1.463a117.094,117.094,0,0,1,4.982,17.694,80.2,80.2,0,0,0-9.59-17.3,3.25,3.25,0,0,0-1.52-.313,101.344,101.344,0,0,1,5.734,10.278,64.225,64.225,0,0,1,4.062,10.792,54.085,54.085,0,0,0-13.2-16.075,13.134,13.134,0,0,1,.367-5.582c-5.84-6.152-14.228-13.719-31.845-17.047a.471.471,0,0,0-.55.373.552.552,0,0,0,0,.162c2.863,15.265,18.732,23.933,18.732,23.933a22.186,22.186,0,0,1,12.862.13c10.109,9.275,16.379,22.546,15.2,36.223a52.616,52.616,0,0,1-1.467,6.612,4.155,4.155,0,0,0,.661,3.737,8.357,8.357,0,0,0,2.687,2.269V116.44c2.015,1.48,4,2.742,6.058,4.038,1.57,1,3.178,2.014,4.822,3.154V101.915a8.279,8.279,0,0,0,2.621-2.232,4.147,4.147,0,0,0,.661-3.737c-.354-1.169-.669-2.45-.943-3.778a3.816,3.816,0,0,1,1.588-3.092,3.746,3.746,0,0,1,3.72-.193,12.178,12.178,0,0,1,3.975,3.016c.193.211.386.427.579.644.146,2.373-.614,5.492-1.991,6.786,3.472,5.55,11.607,7.229,15.569,6.13a.47.47,0,0,0,.232-.159.465.465,0,0,0,.1-.265c.433-8.65-6.383-13.756-10.029-15.265a5.153,5.153,0,0,1-2.991,1.963,14.551,14.551,0,0,0-4.643-4.518,5.746,5.746,0,0,0-6.241.17c.043-.166.091-.33.145-.495,1.1-3.478,4.881-5,8.394-5a1.516,1.516,0,0,0-.739-1.121,13.623,13.623,0,0,0-2.862-.043,10.171,10.171,0,0,0-4.361,1.4c-.164.1-.322.2-.478.317.042-.214.084-.429.131-.642s.193-.75.262-.98c.062-.193.137-.454.2-.642.058-.154.18-.471.236-.626a9.533,9.533,0,0,1,3.722-4.663,8.285,8.285,0,0,1,1.449-.713,11.944,11.944,0,0,1,4.864,8.709c8.941-.657,22.662-7.428,30.087-13.858a.457.457,0,0,0,.109-.139.44.44,0,0,0,.047-.17.434.434,0,0,0-.021-.175.452.452,0,0,0-.086-.154A.507.507,0,0,0,209.49,68.307Z" fill="#233b29"></path>
  <path id="Trazado_18" data-name="Trazado 18" d="M210.41,50.044c-6.558-5.474-14.956-4.748-22.038,3.159a4.7,4.7,0,0,1-1.35,4.058c-.816.325-1.736.713-3.259,1.333q-.551.616-1.158,1.177l.047.16a16.872,16.872,0,0,1,1.844-.193c.1-.029,1.489-.717,2.8-1.329,2.393.031,4.272,2.222,4.943,3.49A24.938,24.938,0,0,0,210.5,50.635a.455.455,0,0,0-.1-.58Z" fill="#233b29"></path>
  <path id="Trazado_19" data-name="Trazado 19" d="M191.277,81.5a8.453,8.453,0,0,1-3.99,3.111c-.745-.475-1.474-.98-2.211-1.47-.709.2-1.429.386-2.15.529,1.261.632,2.49,1.353,3.74,2.019a19.593,19.593,0,0,1,1.365,6.388c6.725,3.414,16.118.124,20.3-3.955a.45.45,0,0,0,.041-.6C207.216,86.026,201.736,79.916,191.277,81.5Z" fill="#233b29"></path>
</svg>
