<?xml version='1.0' encoding='utf-8'?>
<svg xmlns="http://www.w3.org/2000/svg" version="1.1" viewBox="0 0 800 1000">
  
  <defs>
    <style>
      .st0 {
        font-size: 14px;
        letter-spacing: -.05em;
      }

      .st0, .st1 {
        font-family: Helvetica-Bold, Helvetica;
        font-weight: 700;
      }

      .st0, .st2 {
        fill: #fffbf4;
      }

      .st3 {
        fill: #233b29;
      }

      .st4 {
        fill: #9b8f7e;
      }

      .st1 {
        fill: #163726;
        font-size: 16.88px;
        letter-spacing: -.05em;
      }

      .st5 {
        fill: #5ba3d0;
      }

      .st6 {
        fill: #caccc0;
      }

      .st7 {
        fill: #d4b896;
      }

      .st8 {
        fill: #7ba66f;
      }

      .st9 {
        fill: #a8a894;
      }
    </style>
  </defs>
  <g id="Contorno_mapa">
    <rect class="st2" width="800" height="1000" />
  </g>
  <g id="Exterior" class="map-layer exterior-layer" opacity="1">
    <path class="st5" d="M481.91,590.83c-7.19-1.73-13.64-6.09-17.5-12.63-5.05-8.58-6.12-24.2,3.69-30.05,3.65-2.18,8.11-2.38,12.36-2.29,13.97.3,27.74,2.31,41.7,1.23,3.89-.3,7.97-.25,11.47,1.49,2.3,1.14,4.15,2.93,5.74,4.92,2.45,3.06,2.72,5.74,6.56,7.57,6.99,3.32,13.87,6.68,21.2,9.2,1.14.39,2.31.78,3.23,1.56,2.57,2.17,2.03,6.46,0,9.14-3.07,4.04-8.31,6.8-12.64,9.27-2.6,1.48-5.27,2.98-8.23,3.41-9.41,1.36-17.59-8.38-27.06-7.56-11,.96-21.7,5.33-32.71,5.58-2.64.06-5.26-.22-7.8-.83Z" />
    <path class="st5" d="M441.25,439.95c-1.18,2.28-2.06,4.65-1.96,6.58.1,2,1.2,3.8,2.26,5.5,2.65,4.22,5.29,8.43,7.94,12.65.9,1.44,2.04,3.02,3.72,3.18.92.09,1.82-.29,2.63-.75,4.04-2.31,6.5-6.8,7.27-11.39.62-3.69.98-10.57-1.35-13.7-2.87-3.86-7.23-6.5-11.07-9.27-2.29-1.65-4.09-1.16-5.69,1.14-1.08,1.55-2.56,3.75-3.75,6.05Z" />
    <path class="st9" d="M782.27,559.45l-7.98-20.37c-.38-.97-1.16-1.74-2.14-2.1l-19.53-7.14c-.75-.27-1.57-.29-2.33-.06l-54.71,16.94-69.48-41.65,20.55-12.8c1.07-.67,1.72-1.84,1.72-3.1v-27.71c0-2.02-1.63-3.65-3.65-3.65s-3.65,1.63-3.65,3.65v25.69l-21.92,13.66-18.59-19.8c-.53-.56-1.22-.94-1.97-1.09l-53.55-10.29c-1.15-.22-2.34.12-3.19.93l-21.06,19.87-8.13.45-20.62-26.82c-.09-.12-.19-.24-.3-.34l-3.83-3.87,16.12-59.04c.05-.19.09-.38.11-.58l20.72-197.16c.2-1.88-1.07-3.6-2.93-3.96l-52.66-10.29-2.69-10.65,187.53,25.02c1.98.26,3.83-1.14,4.1-3.13.27-2-1.14-3.83-3.13-4.1l-372.79-49.75c-1.6-.21-3.17.66-3.82,2.15l-8.57,19.57-21.95-3.46c-1.97-.31-3.84,1.03-4.17,3.01l-55.22,331.87h-20.24c-1.47,0-2.8.88-3.37,2.24l-20.43,48.97h-19.59c-2.02,0-3.65,1.63-3.65,3.65s1.63,3.65,3.65,3.65h22s0,0,.01,0c0,0,.01,0,.02,0h19.41c2.02,0,3.65-1.63,3.65-3.65s-1.63-3.65-3.65-3.65h-13.95l18.33-43.91h20.92l128.71-.7-32.79,44.48c-1.19,1.62-.85,3.91.77,5.1.65.48,1.41.71,2.16.71,1.12,0,2.22-.51,2.94-1.48l33.98-46.09,44.29,46.45c1.39,1.46,3.7,1.51,5.16.12,1.46-1.39,1.51-3.7.12-5.16l-42.15-44.2,44.29-.24c.06,0,.12,0,.18,0l129.34-7.21,8.23,16.67-10.55,12.42h-48.49c-1,0-1.96.41-2.65,1.14l-18.48,19.53c-.46.49-.78,1.1-.92,1.75l-5.46,25.82c-.08.38-.1.78-.05,1.17l3.37,29.58-22.33,23.33c-1.16,1.21-1.34,3.06-.45,4.48l34.18,53.94-5.66,55.8-33.25,50.7-48.8,24.13c-1.81.89-2.55,3.08-1.65,4.89.64,1.29,1.93,2.03,3.27,2.03.54,0,1.1-.12,1.61-.38l49.64-24.54s0,0,0,0l34.9-16.59,37.37-6.78,35.11.83c.42.02.8-.05,1.19-.17l43.88-13.86c.17-.05.33-.12.48-.19l120.09-57.74c.17-.08.34-.18.49-.29l34.06-23.55,24.35-17.43c.2-.14.38-.3.55-.48l19.53-21c.22-.24.42-.51.57-.81l15.12-29.18c.22-.43.36-.9.4-1.38l4.2-51.23c.04-.55-.04-1.11-.24-1.63ZM613.88,654.72c-7.98,0-14.47-6.49-14.47-14.47s6.49-14.47,14.47-14.47,14.47,6.49,14.47,14.47-6.49,14.47-14.47,14.47ZM497.47,393.84l-25.7.18,21.11-171.9,22.39,2.35-17.8,169.37ZM379.01,498.35l-183.06,1,54.43-327.08,21.15,3.33c1.64.27,3.25-.62,3.91-2.14l8.6-19.63,174.74,23.32,3.97,15.72c.35,1.37,1.45,2.42,2.84,2.69l51.65,10.1-1.21,11.56-25.96-2.73c-1.96-.21-3.76,1.21-4,3.18l-22.05,179.58c-.13,1.04.2,2.09.9,2.87.69.78,1.68,1.22,2.72,1.22h.02l28.7-.2-14.4,52.74-8.44-8.52-1.13-11.54c-.12-1.19-.81-2.25-1.85-2.83l-25.61-14.28c-.85-.47-1.85-.59-2.78-.32s-1.72.89-2.19,1.74l-14.49,26.22c-.67,1.21-.6,2.69.19,3.83l22.68,32.99c.71,1.03,1.85,1.58,3.01,1.58.66,0,1.33-.18,1.93-.55l20.57-12.81c1.18-.73,1.84-2.07,1.7-3.45l-.89-9.08,5.89,5.94c.34.64.86,1.18,1.52,1.53l4.32,4.36,17.43,22.68-124.81,6.95ZM468.07,464.41l-15.68,9.76-19.43-28.26,11.62-21.04,20.75,11.56,2.74,27.97ZM442.74,552.47l16.69-17.64h48.61c1.07,0,2.09-.47,2.78-1.29l13.19-15.54c.94-1.11,1.13-2.67.49-3.98l-7.91-16.04,5.93-.33c.86-.05,1.67-.4,2.3-.99l20.67-19.5,50.55,9.71,17.46,18.6-3.88,98.32-123.8-4.89c-.18,0-.36,0-.54.02l-44.58,4.86-3.09-27.09,5.12-24.24ZM443.35,777.22c-.32.06-.62.16-.92.29l-23.58,11.21,27.15-41.39c.32-.49.52-1.05.58-1.63l5.88-57.95c.08-.81-.11-1.63-.55-2.32l-33.32-52.59,20.62-21.54,46.6-5.08,123.52,4.88-.31,7.94c-9.67,2.21-16.92,10.88-16.92,21.22,0,11.33,8.7,20.67,19.78,21.68v5.21l-27.76,9.45c-.46.16-.89.4-1.25.73l-105.41,93.73-34.12,6.19ZM679.83,699.97l-119.6,57.5-43.05,13.6-28.01-.66,98.01-87.15,28.79-9.8,89.46,8.82-25.59,17.69ZM771.1,610.98l-14.55,28.09-18.94,20.36-22.94,16.41-95.49-9.41v-5.08c9.45-2.37,16.47-10.94,16.47-21.11,0-11.17-8.46-20.4-19.31-21.63l4.28-108.31,72.61,43.53c.89.53,1.96.66,2.96.36l55.09-17.06,16.82,6.15,7.07,18.05-4.07,49.66Z" />
    <polygon class="st6" points="303.22 182.62 280.32 176.04 282.51 168.1 305.41 174.68 303.22 182.62" />
    <path class="st6" d="M83.63,559.69v30.79l16.72,35.19h47.8l8.5-32.99h15.54l7.62-32.99s-96.92-.73-96.19,0Z" />
    <rect class="st6" x="651.24" y="459.58" width="19.68" height="32.14" />
    <text class="st1" transform="translate(157.85 616.6)"><tspan x="0" y="0">WC</tspan></text>
    <text class="st1" transform="translate(677.38 473.23)"><tspan x="0" y="0">WC</tspan></text>
    <g>
      <path class="st3" d="M24.81,506.06h-6.69c-1.68,0-3.04-1.36-3.04-3.04s1.36-3.04,3.04-3.04h6.69c1.68,0,3.04,1.36,3.04,3.04s-1.36,3.04-3.04,3.04Z" />
      <path class="st3" d="M172.64,506.06h-12.32c-1.68,0-3.04-1.36-3.04-3.04s1.36-3.04,3.04-3.04h12.32c1.68,0,3.04,1.36,3.04,3.04s-1.36,3.04-3.04,3.04ZM148,506.06h-12.32c-1.68,0-3.04-1.36-3.04-3.04s1.36-3.04,3.04-3.04h12.32c1.68,0,3.04,1.36,3.04,3.04s-1.36,3.04-3.04,3.04ZM123.36,506.06h-12.32c-1.68,0-3.04-1.36-3.04-3.04s1.36-3.04,3.04-3.04h12.32c1.68,0,3.04,1.36,3.04,3.04s-1.36,3.04-3.04,3.04ZM98.72,506.06h-12.32c-1.68,0-3.04-1.36-3.04-3.04s1.36-3.04,3.04-3.04h12.32c1.68,0,3.04,1.36,3.04,3.04s-1.36,3.04-3.04,3.04ZM74.09,506.06h-12.32c-1.68,0-3.04-1.36-3.04-3.04s1.36-3.04,3.04-3.04h12.32c1.68,0,3.04,1.36,3.04,3.04s-1.36,3.04-3.04,3.04ZM49.45,506.06h-12.32c-1.68,0-3.04-1.36-3.04-3.04s1.36-3.04,3.04-3.04h12.32c1.68,0,3.04,1.36,3.04,3.04s-1.36,3.04-3.04,3.04Z" />
      <path class="st3" d="M191.86,512.74c-1.63,0-2.98-1.3-3.04-2.94l-.12-3.75h-3.75c-1.68,0-3.04-1.36-3.04-3.04s1.36-3.04,3.04-3.04h6.69c1.64,0,2.99,1.3,3.04,2.94l.22,6.69c.06,1.68-1.26,3.08-2.94,3.14-.03,0-.07,0-.1,0Z" />
      <path class="st3" d="M349.74,883.92c-.8,0-1.6-.31-2.2-.94l-9.33-9.75c-1.16-1.21-1.12-3.14.09-4.3,1.21-1.16,3.14-1.12,4.3.09l9.33,9.75c1.16,1.21,1.12,3.14-.09,4.3-.59.56-1.35.84-2.1.84ZM331.08,864.42c-.8,0-1.6-.31-2.2-.94l-9.33-9.75c-1.16-1.21-1.12-3.14.09-4.3,1.21-1.16,3.14-1.12,4.3.09l9.33,9.75c1.16,1.21,1.12,3.14-.09,4.3-.59.56-1.35.84-2.1.84ZM312.41,844.93c-.8,0-1.6-.31-2.2-.94l-9.33-9.75c-1.16-1.21-1.12-3.14.09-4.3,1.21-1.16,3.14-1.12,4.3.09l9.33,9.75c1.16,1.21,1.12,3.14-.09,4.3-.59.56-1.35.84-2.1.84ZM293.75,825.43c-.8,0-1.6-.31-2.2-.94l-9.33-9.75c-1.16-1.21-1.12-3.14.09-4.3,1.21-1.16,3.14-1.12,4.3.09l9.33,9.75c1.16,1.21,1.12,3.14-.09,4.3-.59.56-1.35.84-2.1.84ZM275.08,805.94c-.8,0-1.6-.31-2.2-.94l-9.33-9.75c-1.16-1.21-1.12-3.14.09-4.3,1.21-1.16,3.14-1.12,4.3.09l9.33,9.75c1.16,1.21,1.12,3.14-.09,4.3-.59.56-1.35.84-2.1.84ZM256.42,786.44c-.8,0-1.6-.31-2.2-.94l-9.33-9.75c-1.16-1.21-1.12-3.14.09-4.3,1.21-1.16,3.14-1.12,4.3.09l9.33,9.75c1.16,1.21,1.12,3.14-.09,4.3-.59.56-1.35.84-2.1.84ZM237.75,766.95c-.8,0-1.6-.31-2.2-.94l-9.33-9.75c-1.16-1.21-1.12-3.14.09-4.3,1.21-1.16,3.14-1.12,4.3.09l9.33,9.75c1.16,1.21,1.12,3.14-.09,4.3-.59.56-1.35.84-2.1.84ZM219.09,747.45c-.8,0-1.6-.31-2.2-.94l-9.33-9.75c-1.16-1.21-1.12-3.14.09-4.3,1.21-1.16,3.14-1.12,4.3.09l9.33,9.75c1.16,1.21,1.12,3.14-.09,4.3-.59.56-1.35.84-2.1.84ZM200.42,727.96c-.8,0-1.6-.31-2.2-.94l-1.46-1.52c-.52-.54-.82-1.25-.84-2l-.38-11.38c-.05-1.68,1.26-3.08,2.94-3.14,1.68-.05,3.08,1.26,3.14,2.94l.34,10.22.65.68c1.16,1.21,1.12,3.14-.09,4.3-.59.56-1.35.84-2.1.84ZM198.14,701.57c-1.63,0-2.98-1.3-3.04-2.94l-.45-13.49c-.05-1.68,1.26-3.08,2.94-3.14,1.65-.06,3.08,1.26,3.14,2.94l.45,13.49c.06,1.68-1.26,3.08-2.94,3.14-.03,0-.07,0-.1,0ZM197.24,674.59c-1.63,0-2.98-1.3-3.04-2.94l-.45-13.49c-.06-1.68,1.26-3.08,2.94-3.14,1.69-.06,3.08,1.26,3.14,2.94l.45,13.49c.05,1.68-1.26,3.08-2.94,3.14-.03,0-.07,0-.1,0ZM196.34,647.62c-1.63,0-2.98-1.3-3.04-2.94l-.45-13.49c-.06-1.68,1.26-3.08,2.94-3.14,1.66-.04,3.08,1.26,3.14,2.94l.45,13.49c.05,1.68-1.26,3.08-2.94,3.14-.03,0-.07,0-.1,0ZM195.45,620.64c-1.63,0-2.98-1.3-3.04-2.94l-.45-13.49c-.05-1.68,1.26-3.08,2.94-3.14,1.64-.05,3.08,1.26,3.14,2.94l.45,13.49c.06,1.68-1.26,3.08-2.94,3.14-.03,0-.07,0-.1,0ZM194.55,593.67c-1.63,0-2.98-1.3-3.04-2.94l-.45-13.49c-.06-1.68,1.26-3.08,2.94-3.14,1.67-.06,3.09,1.26,3.14,2.94l.45,13.49c.06,1.68-1.26,3.08-2.94,3.14-.03,0-.07,0-.1,0ZM193.66,566.69c-1.63,0-2.98-1.3-3.04-2.94l-.45-13.49c-.06-1.68,1.26-3.08,2.94-3.14,1.65-.06,3.08,1.26,3.14,2.94l.45,13.49c.06,1.68-1.26,3.08-2.94,3.14-.03,0-.07,0-.1,0ZM192.76,539.72c-1.63,0-2.98-1.3-3.04-2.94l-.45-13.49c-.06-1.68,1.26-3.08,2.94-3.14,1.69-.07,3.08,1.26,3.14,2.94l.45,13.49c.06,1.68-1.26,3.08-2.94,3.14-.03,0-.07,0-.1,0Z" />
      <path class="st3" d="M363.7,898.5c-.8,0-1.6-.31-2.2-.94l-4.63-4.83c-1.16-1.21-1.12-3.14.09-4.3,1.21-1.16,3.14-1.12,4.3.09l4.63,4.83c1.16,1.21,1.12,3.14-.09,4.3-.59.56-1.35.84-2.1.84Z" />
    </g>
  </g>
  <g id="Interior" class="map-layer interior-layer" opacity="0.25">
    <rect class="st6" x="544.35" y="446.12" width="47.34" height="20.18" />
    <path class="st6" d="M414.53,399.87l-91.81,13.09-2.85-6.38-71.84,18.13s.34,32.12.34,31.5h-25.18l-2.69,110.5,68.15,7.39,2.69,11.41,130.59,15.11,3.02-66.8-10.41-133.94ZM368.2,546.57h-82.25v-82.25h82.25v82.25Z" />
    <path class="st6" d="M215.23,103.06l-19.91,69.52,37.73,7.34,6.99-24.45,25.85,6.29,12.58-37.38s-63.58-21.66-63.23-21.31Z" />
  </g>
  <g id="POIS">
    <g data-poi-id="9" class="poi-marker">
      <circle class="st8" cx="749.83" cy="562.26" r="12" />
      <text class="st0" transform="translate(745.94 566.97)"><tspan x="0" y="0">9</tspan></text>
    </g>
    <g data-poi-id="8" class="poi-marker">
      <circle class="st8" cx="411" cy="731.62" r="12" />
      <text class="st0" transform="translate(407.11 736.34)"><tspan x="0" y="0">8</tspan></text>
    </g>
    <g data-poi-id="2" class="poi-marker">
      <circle class="st8" cx="268.32" cy="198.6" r="12" />
      <text class="st0" transform="translate(264.43 203.31)"><tspan x="0" y="0">2</tspan></text>
    </g>
    <g data-poi-id="3" class="poi-marker">
      <circle class="st8" cx="264.45" cy="138.13" r="12" />
      <text class="st0" transform="translate(260.56 142.85)"><tspan x="0" y="0">3</tspan></text>
    </g>
    <g data-poi-id="4" class="poi-marker">
      <circle class="st8" cx="496.48" cy="156.2" r="12" />
      <text class="st0" transform="translate(492.58 160.92)"><tspan x="0" y="0">4</tspan></text>
    </g>
    <g data-poi-id="5" class="poi-marker">
      <circle class="st8" cx="499.06" cy="267.09" r="12" />
      <text class="st0" transform="translate(495.16 271.81)"><tspan x="0" y="0">5</tspan></text>
    </g>
    <g data-poi-id="6" class="poi-marker">
      <circle class="st8" cx="432.96" cy="419.79" r="12" />
      <text class="st0" transform="translate(429.07 424.5)"><tspan x="0" y="0">6</tspan></text>
    </g>
    <g data-poi-id="15" class="poi-marker">
      <circle class="st7" cx="399" cy="436.49" r="12" />
      <text class="st0" transform="translate(391.56 441.2)"><tspan x="0" y="0">15</tspan></text>
    </g>
    <g data-poi-id="14" class="poi-marker">
      <circle class="st7" cx="399" cy="469.03" r="12" />
      <text class="st0" transform="translate(391.56 473.74)"><tspan x="0" y="0">14</tspan></text>
    </g>
    <g data-poi-id="13" class="poi-marker">
      <circle class="st7" cx="399" cy="501.57" r="12" />
      <text class="st0" transform="translate(391.56 506.28)"><tspan x="0" y="0">13</tspan></text>
    </g>
    <g data-poi-id="10" class="poi-marker">
      <circle class="st7" cx="438.93" cy="499.6" r="12" />
      <text class="st0" transform="translate(431.49 504.31)"><tspan x="0" y="0">10</tspan></text>
    </g>
    <g data-poi-id="12" class="poi-marker">
      <circle class="st7" cx="399" cy="532.51" r="12" />
      <text class="st0" transform="translate(391.56 537.23)"><tspan x="0" y="0">12</tspan></text>
    </g>
    <g data-poi-id="11" class="poi-marker">
      <circle class="st7" cx="399" cy="563.46" r="12" />
      <text class="st0" transform="translate(391.56 568.18)"><tspan x="0" y="0">11</tspan></text>
    </g>
    <g data-poi-id="1" class="poi-marker">
      <circle class="st8" cx="208.5" cy="503.02" r="12" />
      <text class="st0" transform="translate(204.61 507.73)"><tspan x="0" y="0">1</tspan></text>
    </g>
    <g data-poi-id="18" class="poi-marker">
      <circle class="st4" cx="285.96" cy="503.02" r="12" />
      <text class="st0" transform="translate(278.52 507.73)"><tspan x="0" y="0">18</tspan></text>
    </g>
    <g data-poi-id="16" class="poi-marker">
      <circle class="st4" cx="328.42" cy="503.02" r="12" />
      <text class="st0" transform="translate(320.98 507.73)"><tspan x="0" y="0">16</tspan></text>
    </g>
    <g data-poi-id="17" class="poi-marker">
      <circle class="st4" cx="355.32" cy="532.15" r="12" />
      <text class="st0" transform="translate(347.88 536.86)"><tspan x="0" y="0">17</tspan></text>
    </g>
    <g data-poi-id="7" class="poi-marker">
      <circle class="st8" cx="549.44" cy="499.6" r="12" />
      <text class="st0" transform="translate(545.54 504.31)"><tspan x="0" y="0">7</tspan></text>
    </g>
  </g>
</svg>